# xmcd
#
# Track frame offsets:
#	150
#	16595
#	35723
#	53210
#	71232
#	82099
#	98831
#	110410
#	123838
#	144491
#	154388
#
# Disc length: 2229 seconds
#
# Revision: 1
# Processed by: cddbd v1.5.1PL0 Copyright (c) Steve Scherf et al.
# Submitted via: audiograbber 1.81.03
#
DISCID=9408b30b
DTITLE=The Hurtin Unit - Country Soul
DYEAR=2003
DGENRE=Folk-Rock
TTITLE0=Rub A Dub Dub
TTITLE1=Paddy's Lament
TTITLE2=Fantastic
TTITLE3=Nicole's Waltz
TTITLE4=Many Girls
TTITLE5=We
TTITLE6=Lockdown
TTITLE7=Loon Haunt
TTITLE8=Black St Blues
TTITLE9=Paradise
TTITLE10=Country Soul
EXTD=
EXTT0=
EXTT1=
EXTT2=
EXTT3=
EXTT4=
EXTT5=
EXTT6=
EXTT7=
EXTT8=
EXTT9=
EXTT10=
PLAYORDER=
